HIERARCHY
ROOT hip
{
	OFFSET 0.000000 0.000000 0.000000 
	CHANNELS 6 Xposition Yposition Zposition Xrotation Zrotation Yrotation
	JOINT abdomen
	{
		OFFSET 0.000000 3.402643 0.000000 
		CHANNELS 3 Xrotation Zrotation Yrotation
		JOINT chest
		{
			OFFSET 0.000000 8.438565 -0.680529 
			CHANNELS 3 Xrotation Zrotation Yrotation
			JOINT neck
			{
				OFFSET 0.000000 10.207942 -0.272212 
				CHANNELS 3 Xrotation Zrotation Yrotation
				JOINT head
				{
					OFFSET 0.000000 3.130431 0.000000 
					CHANNELS 3 Xrotation Zrotation Yrotation
					End Site
					{
						OFFSET 0.000000 3.130435 0.000000 
					}
				}
			}
			JOINT lCollar
			{
				OFFSET 3.470700 6.669187 -0.816635 
				CHANNELS 3 Yrotation Zrotation Xrotation
				JOINT lShldr
				{
					OFFSET 3.198488 0.000000 0.000000 
					CHANNELS 3 Zrotation Yrotation Xrotation
					JOINT lForeArm
					{
						OFFSET 10.139888 0.000000 0.000000 
						CHANNELS 3 Yrotation Zrotation Xrotation
						JOINT lHand
						{
							OFFSET 8.370511 0.000000 0.000000 
							CHANNELS 3 Zrotation Yrotation Xrotation
							End Site
							{
								OFFSET 4.083176 0.000000 0.000000 
							}
						}
					}
				}
			}
			JOINT rCollar
			{
				OFFSET -3.470700 6.669187 -0.816635 
				CHANNELS 3 Yrotation Zrotation Xrotation
				JOINT rShldr
				{
					OFFSET -3.198488 0.000000 0.000000 
					CHANNELS 3 Zrotation Yrotation Xrotation
					JOINT rForeArm
					{
						OFFSET -10.139888 0.000000 0.000000 
						CHANNELS 3 Yrotation Zrotation Xrotation
						JOINT rHand
						{
							OFFSET -8.370511 0.000000 0.000000 
							CHANNELS 3 Zrotation Yrotation Xrotation
							End Site
							{
								OFFSET -4.083176 0.000000 0.000000 
							}
						}
					}
				}
			}
		}
	}
	JOINT lThigh
	{
		OFFSET 5.308129 -1.633274 1.361059 
		CHANNELS 3 Xrotation Zrotation Yrotation
		JOINT lShin
		{
			OFFSET -2.041588 -20.007561 0.000000 
			CHANNELS 3 Xrotation Zrotation Yrotation
			JOINT lFoot
			{
				OFFSET 0.000000 -19.190928 -1.224953 
				CHANNELS 3 Xrotation Yrotation Zrotation
				End Site
				{
					OFFSET 0.000000 -2.449906 4.627600 
				}
			}
		}
	}
	JOINT rThigh
	{
		OFFSET -5.308129 -1.633274 1.361059 
		CHANNELS 3 Xrotation Zrotation Yrotation
		JOINT rShin
		{
			OFFSET 2.041588 -20.007561 0.000000 
			CHANNELS 3 Xrotation Zrotation Yrotation
			JOINT rFoot
			{
				OFFSET 0.000000 -19.190928 -1.224953 
				CHANNELS 3 Xrotation Yrotation Zrotation
				End Site
				{
					OFFSET 0.000000 -2.449906 4.627600 
				}
			}
		}
	}
}
MOTION
Frames: 13
Frame Time: 0.033333
-0.665885 49.148792 1.930512 0.738252 -0.193659 -7.460992 0.000000 0.000000 0.000000 -2.335708 1.298654 -0.937702 2.100568 1.406250 0.039290 7.623000 0.351514 0.947308 -0.456561 -2.537854 -1.485473 -73.014252 12.806028 -9.736490 -34.178894 -0.238706 12.788179 -25.910927 7.253176 -4.442063 -3.442045 10.228758 -1.189192 60.304333 -6.078236 -9.759474 42.409077 1.484941 8.168900 -1.012097 -5.102116 -3.520177 7.700991 13.354921 10.765766 1.528395 -1.357618 15.723304 -3.778813 0.478427 -14.535523 -4.734351 -3.318758 -5.154848 18.735126 3.663009 -15.423614 -14.013399 -0.438447 3.417078 
-1.081166 49.103233 1.861812 -0.023849 -0.038681 -8.017583 0.000000 0.000000 0.000000 -1.564363 1.230283 -0.996283 2.503876 1.894527 0.117446 7.130050 -0.361225 1.367160 -0.898819 -2.116552 -0.801222 -76.642334 14.030034 -7.179409 -35.225777 -1.332224 9.996201 -25.362522 8.579677 -4.746135 -3.804095 10.459814 -0.456715 61.923164 -5.937967 -5.313583 38.662643 3.038469 8.852130 -1.910052 -5.707391 -3.505939 7.167466 13.301165 9.856472 4.397943 0.002879 14.779630 -3.880292 0.566821 -16.224197 -4.388281 -3.256091 -5.393893 19.510189 3.846950 -14.450717 -14.581081 -0.352524 2.764858 
-1.486684 49.050117 1.734807 -0.480888 0.212497 -8.476613 0.000000 0.000000 0.000000 -0.901559 1.230260 -1.054864 2.761859 1.943343 0.234571 6.964088 -0.322152 1.523414 -1.189195 -2.330146 -0.185354 -77.555275 14.887579 -2.524731 -36.680687 -3.298879 8.680416 -19.802879 8.008821 -4.365767 -4.284252 10.522581 0.196846 62.541973 -5.665481 -0.449682 35.480125 5.158376 7.946792 -2.288781 -6.329225 -3.498560 2.967558 13.552642 7.933279 12.766519 1.611301 14.252761 -3.437779 0.561383 -18.596127 -4.516498 -3.062320 -5.296058 20.360794 3.789003 -13.928602 -15.073970 -0.331940 2.251392 
-1.777990 48.978409 1.641806 -1.041787 0.414825 -8.935735 0.000000 0.000000 0.000000 -0.076104 1.415753 -1.103661 3.041047 2.060501 0.381315 6.543787 -0.312372 1.640601 -1.512660 -2.085366 0.566897 -78.376244 15.072195 0.395478 -37.820168 -4.480415 7.757349 -7.524470 8.030590 -3.891280 -4.392186 10.368338 0.959047 62.746429 -6.068401 3.774335 34.051609 6.996913 8.932984 -1.223081 -6.524976 -3.520496 -1.465307 13.054134 6.016467 20.722435 3.124053 18.199949 -1.867792 0.412413 -21.058357 -4.583658 -3.022339 -5.366390 21.365280 3.798085 -13.627460 -15.657674 -0.286794 1.882190 
-2.033158 48.952534 1.598748 -1.200154 0.635688 -9.502446 0.000000 0.000000 0.000000 0.465756 1.611171 -0.801014 3.137390 2.451072 0.518358 6.199563 -0.712577 1.699330 -1.753191 -1.340783 1.044826 -79.415604 14.779343 1.111996 -38.643482 -4.257911 10.622960 0.947260 7.495726 -3.517976 -4.142293 10.446491 1.456104 62.687195 -7.002595 6.815887 33.856003 8.308251 10.549574 -2.185565 -7.330517 -3.484025 -4.957959 12.032596 4.759061 25.505110 3.954611 24.448559 0.221289 -0.046384 -21.485575 -4.683271 -2.985108 -5.330612 21.780151 3.780121 -13.199374 -15.936838 -0.238491 1.523764 
-2.227574 49.000237 1.618684 -1.477491 1.135174 -9.904250 0.000000 0.000000 0.000000 0.974094 1.630813 -0.429791 3.427657 2.519362 0.664708 5.688494 -0.575986 1.455103 -1.769430 -1.062729 1.513222 -79.332466 13.719717 1.546880 -38.617786 -3.759184 16.082867 -1.703348 6.715365 -3.594091 -3.660149 10.286828 1.891140 62.742672 -7.834370 8.423077 33.259705 9.029489 12.112340 -1.812426 -8.236959 -3.503752 -8.249513 10.689633 3.764284 29.573172 3.746222 26.250196 -0.239838 0.080342 -18.420057 -4.305882 -3.358689 -5.521245 21.573467 3.795055 -12.325266 -16.000515 -0.182147 1.102541 
-2.397831 49.040112 1.658381 -1.660680 1.719800 -10.317183 0.000000 0.000000 0.000000 1.226941 1.591793 -0.126904 3.913172 2.333703 0.889525 5.605266 -0.009764 1.191406 -1.338881 -0.958787 1.728282 -77.832520 12.704635 2.864656 -38.498207 -3.935282 19.206781 -8.071932 6.178017 -3.734320 -3.301598 10.141369 2.100292 62.741817 -8.773480 8.918418 32.562389 9.292834 12.316297 -0.522763 -8.731829 -3.560973 -11.161087 9.217836 2.939854 32.450012 3.035806 24.451925 -1.176836 0.173531 -15.658792 -4.088861 -3.834500 -5.723022 21.511635 3.837000 -11.456128 -16.159922 -0.117976 0.707736 
-2.558251 49.049747 1.742671 -1.620289 2.079246 -11.139916 0.000000 0.000000 0.000000 1.297454 1.757793 0.273608 3.997010 2.020823 1.465999 6.858826 0.712770 1.054849 -0.582764 -0.741087 1.777479 -75.634773 12.018432 5.136416 -38.923409 -4.751951 20.209749 -11.120665 5.680358 -3.754720 -2.925514 10.084802 2.139392 62.214027 -9.801547 9.424970 32.778992 9.529936 11.184879 -1.197460 -9.283912 -3.529642 -12.814461 7.963366 2.923179 32.198456 1.788690 23.970369 -1.228561 0.161597 -14.221905 -4.138206 -4.001059 -5.680729 21.564213 3.756473 -10.657043 -16.356544 -0.064638 0.439252 
-2.670750 49.001930 1.862045 -1.319243 2.296242 -11.562112 0.000000 0.000000 0.000000 1.215089 1.943310 0.410583 3.837227 2.088748 1.856727 7.892067 1.025176 1.172212 -0.693537 0.321140 1.718654 -74.626503 11.731210 6.487752 -39.496475 -5.025448 21.264074 -10.223374 5.314975 -3.700071 -2.767383 10.103253 2.070704 61.467201 -10.421493 9.875404 33.109776 9.698958 10.246311 -1.546339 -9.737330 -3.514535 -14.164848 6.823578 3.110051 30.415806 0.210165 24.054083 -1.718091 0.172800 -12.131919 -4.538363 -4.079135 -5.539358 22.102884 3.679247 -10.104961 -16.835426 -0.065320 0.350809 
-2.777453 48.961922 1.996296 -0.812387 2.383750 -11.396636 0.000000 0.000000 0.000000 1.039204 2.158200 0.107713 3.842666 2.381690 1.759540 8.200071 0.644321 1.464971 -1.226171 0.894430 1.572026 -73.322845 11.586387 7.534837 -40.036053 -5.195735 21.938179 -7.735357 5.777449 -3.683080 -3.167370 10.466558 1.943515 59.974560 -10.292370 10.686636 32.997807 10.045729 10.061577 -1.334238 -10.007343 -3.521925 -15.912652 5.564246 2.901453 28.109533 -1.053217 25.378044 -1.280558 0.126251 -9.377604 -4.888386 -3.931506 -5.400367 22.344913 3.643353 -10.297986 -17.255207 -0.092892 0.413120 
-2.868905 48.935730 2.231408 -0.646001 2.555272 -11.486120 0.000000 0.000000 0.000000 1.053082 2.353515 -0.039030 4.000617 2.215534 1.935168 7.991814 0.907910 1.455360 -1.405005 0.634812 1.601097 -71.595688 11.311439 8.613734 -40.706562 -5.449441 21.928288 -4.066349 6.291456 -3.655694 -2.987900 10.180313 1.921134 58.899994 -9.779129 11.297037 32.361275 10.365681 10.366928 -1.365865 -9.950926 -3.528488 -16.737835 4.365494 2.921407 24.790365 -2.657881 26.140409 -0.501706 0.063266 -5.791919 -4.804529 -3.984218 -5.418649 22.484688 3.611175 -10.186747 -17.714012 -0.084505 0.451476 
-2.908040 48.881363 2.479427 -0.234619 2.695022 -11.878551 0.000000 0.000000 0.000000 0.940520 2.529295 0.068724 3.961181 2.254287 2.140473 7.864164 0.868853 1.474884 -1.325970 0.649243 1.493761 -70.761650 11.319668 8.513049 -41.496914 -5.310911 22.403433 -0.549446 5.738862 -3.542971 -2.929724 10.625456 1.846213 56.864792 -9.080631 12.115095 32.269085 10.754414 10.658862 -1.568125 -11.129173 -3.514835 -17.827713 3.260627 2.912260 21.060820 -4.217146 28.471865 0.569898 0.003017 -0.926685 -5.075904 -4.040896 -5.301498 22.916006 3.567068 -9.618089 -18.290270 -0.108325 0.449371 
-2.944172 48.820438 2.800863 0.194850 2.690797 -12.298906 0.000000 0.000000 0.000000 0.833226 2.636717 0.068736 3.720253 2.625155 2.121388 8.143803 0.292829 1.767605 -1.121982 1.545383 1.396508 -71.301697 11.055875 7.634089 -41.304317 -4.947924 22.050159 -0.474487 5.782592 -3.544948 -3.032772 11.142780 1.788580 55.137234 -8.046621 12.515263 32.164703 10.986067 10.944192 -1.970952 -11.909740 -3.488055 -18.190811 2.255534 2.430257 16.091122 -5.070245 31.608828 1.398124 0.037748 2.228187 -5.194624 -4.120467 -5.346438 23.240541 3.632392 -8.773834 -18.876217 -0.091966 0.436953 
